<!-- icon666.com - MILLIONS vector ICONS FREE --><svg id="Layer_1" enable-background="new 0 0 512 512" viewBox="0 0 512 512" xmlns="http://www.w3.org/2000/svg"><g><path d="m384.533 96.4h-257.066c-70.285 0-127.467 57.182-127.467 127.467v64.267c0 70.284 57.182 127.466 127.467 127.466h257.066c70.285 0 127.467-57.182 127.467-127.467v-64.267c0-70.284-57.182-127.466-127.467-127.466zm0 289.2h-257.066c-46.809 0-86.012-33.171-95.35-77.24 23.369 26.341 57.451 42.974 95.35 42.974h257.066c37.899 0 71.982-16.632 95.35-42.974-9.337 44.069-48.54 77.24-95.35 77.24zm0-64.267h-257.066c-129.158-4.916-129.06-190.064 0-194.934h257.066c129.158 4.917 129.06 190.065 0 194.934z"></path><path d="m143.533 190.667c19.881-.738 19.866-29.269 0-30h-32.133c-8.284 0-15 6.716-15 15v96.4c0 8.284 6.716 15 15 15h32.133c19.881-.738 19.866-29.269 0-30h-17.133v-18.2h9.1c19.881-.738 19.866-29.269 0-30h-9.1v-18.2z"></path><path d="m215.833 160.667c-21.56 0-39.1 17.54-39.1 39.1v72.3c.738 19.881 29.269 19.866 30 0v-17.134h18.2v17.134c.738 19.881 29.269 19.866 30 0v-72.3c0-21.56-17.54-39.1-39.1-39.1zm9.1 64.266h-18.2v-25.167c.429-12.047 17.775-12.038 18.2 0z"></path><path d="m312.233 208.867c-12.088-.449-12-17.807 0-18.2h8.033c19.881-.738 19.866-29.269 0-30h-8.033c-21.61 0-39.1 17.475-39.1 39.1 0 21.56 17.54 39.1 39.1 39.1 11.987.394 12.095 17.763 0 18.2h-8.033c-19.881.738-19.866 29.269 0 30h8.033c51.856-1.922 51.745-76.271 0-78.2z"></path><path d="m423.375 162.25c-7.406-3.703-16.418-.702-20.124 6.708l-10.685 21.368-10.684-21.367c-3.705-7.41-12.713-10.414-20.124-6.708-7.41 3.705-10.413 12.715-6.708 20.125l22.516 45.032v44.66c.738 19.881 29.269 19.866 30 0v-44.66l22.517-45.032c3.705-7.411.702-16.421-6.708-20.126z"></path></g></svg>